<mxfile host="Electron" agent="Mozilla/5.0 (Windows NT 10.0; Win64; x64) AppleWebKit/537.36 (KHTML, like Gecko) draw.io/26.2.15 Chrome/134.0.6998.205 Electron/35.2.1 Safari/537.36" version="26.2.15">
  <diagram name="Page-1" id="qFAtJuwPg8JW1aZ13dqq">
    <mxGraphModel dx="1489" dy="894" grid="1" gridSize="10" guides="1" tooltips="1" connect="1" arrows="1" fold="1" page="1" pageScale="1" pageWidth="1100" pageHeight="850" math="0" shadow="0">
      <root>
        <mxCell id="0" />
        <mxCell id="1" parent="0" />
        <mxCell id="YjkJPCfu2g2Q44yJsQ8B-32" style="edgeStyle=orthogonalEdgeStyle;rounded=0;orthogonalLoop=1;jettySize=auto;html=1;entryX=0.5;entryY=0;entryDx=0;entryDy=0;endArrow=none;startFill=0;" parent="1" source="YjkJPCfu2g2Q44yJsQ8B-1" target="YjkJPCfu2g2Q44yJsQ8B-2" edge="1">
          <mxGeometry relative="1" as="geometry" />
        </mxCell>
        <mxCell id="YjkJPCfu2g2Q44yJsQ8B-1" value="Internet" style="ellipse;shape=cloud;whiteSpace=wrap;html=1;" parent="1" vertex="1">
          <mxGeometry x="560" y="10" width="120" height="80" as="geometry" />
        </mxCell>
        <mxCell id="YjkJPCfu2g2Q44yJsQ8B-33" style="rounded=0;orthogonalLoop=1;jettySize=auto;html=1;entryX=0.5;entryY=0;entryDx=0;entryDy=0;endArrow=none;startFill=0;" parent="1" source="YjkJPCfu2g2Q44yJsQ8B-2" target="YjkJPCfu2g2Q44yJsQ8B-6" edge="1">
          <mxGeometry relative="1" as="geometry" />
        </mxCell>
        <mxCell id="YjkJPCfu2g2Q44yJsQ8B-2" value="Main Router&lt;div&gt;(Internet Conection)&lt;/div&gt;" style="ellipse;whiteSpace=wrap;html=1;aspect=fixed;" parent="1" vertex="1">
          <mxGeometry x="580" y="110" width="80" height="80" as="geometry" />
        </mxCell>
        <mxCell id="YjkJPCfu2g2Q44yJsQ8B-7" value="" style="group" parent="1" vertex="1" connectable="0">
          <mxGeometry x="560" y="240" width="120" height="102.75999999999999" as="geometry" />
        </mxCell>
        <mxCell id="YjkJPCfu2g2Q44yJsQ8B-5" value="" style="shape=mxgraph.networks2.icon;aspect=fixed;fillColor=#EDEDED;strokeColor=#000000;gradientColor=#5B6163;network2IconShadow=1;network2bgFillColor=none;network2Icon=mxgraph.networks2.firewall;network2IconXOffset=0.0001;network2IconYOffset=0.0001;network2IconW=1;network2IconH=0.608;" parent="YjkJPCfu2g2Q44yJsQ8B-7" vertex="1">
          <mxGeometry x="0.3299999999999841" y="30" width="119.67" height="72.76" as="geometry" />
        </mxCell>
        <mxCell id="YjkJPCfu2g2Q44yJsQ8B-6" value="Firewall" style="rounded=0;whiteSpace=wrap;html=1;" parent="YjkJPCfu2g2Q44yJsQ8B-7" vertex="1">
          <mxGeometry width="120" height="30" as="geometry" />
        </mxCell>
        <mxCell id="YjkJPCfu2g2Q44yJsQ8B-55" style="edgeStyle=orthogonalEdgeStyle;rounded=0;orthogonalLoop=1;jettySize=auto;html=1;entryX=0;entryY=0.5;entryDx=0;entryDy=0;endArrow=none;startFill=0;" parent="1" source="YjkJPCfu2g2Q44yJsQ8B-8" target="YjkJPCfu2g2Q44yJsQ8B-18" edge="1">
          <mxGeometry relative="1" as="geometry" />
        </mxCell>
        <mxCell id="YjkJPCfu2g2Q44yJsQ8B-56" style="edgeStyle=orthogonalEdgeStyle;rounded=0;orthogonalLoop=1;jettySize=auto;html=1;endArrow=none;startFill=0;" parent="1" source="YjkJPCfu2g2Q44yJsQ8B-8" target="YjkJPCfu2g2Q44yJsQ8B-20" edge="1">
          <mxGeometry relative="1" as="geometry" />
        </mxCell>
        <mxCell id="YjkJPCfu2g2Q44yJsQ8B-57" style="edgeStyle=orthogonalEdgeStyle;rounded=0;orthogonalLoop=1;jettySize=auto;html=1;entryX=0;entryY=0.5;entryDx=0;entryDy=0;endArrow=none;startFill=0;" parent="1" source="YjkJPCfu2g2Q44yJsQ8B-8" target="YjkJPCfu2g2Q44yJsQ8B-19" edge="1">
          <mxGeometry relative="1" as="geometry" />
        </mxCell>
        <mxCell id="dgyicYW2mbPfEkkoXrJB-6" style="edgeStyle=orthogonalEdgeStyle;rounded=0;orthogonalLoop=1;jettySize=auto;html=1;entryX=0;entryY=0.5;entryDx=0;entryDy=0;endArrow=none;startFill=0;" parent="1" source="YjkJPCfu2g2Q44yJsQ8B-8" target="dgyicYW2mbPfEkkoXrJB-3" edge="1">
          <mxGeometry relative="1" as="geometry" />
        </mxCell>
        <mxCell id="dgyicYW2mbPfEkkoXrJB-7" style="edgeStyle=orthogonalEdgeStyle;rounded=0;orthogonalLoop=1;jettySize=auto;html=1;entryX=0;entryY=0.5;entryDx=0;entryDy=0;endArrow=none;startFill=0;" parent="1" source="YjkJPCfu2g2Q44yJsQ8B-8" target="dgyicYW2mbPfEkkoXrJB-2" edge="1">
          <mxGeometry relative="1" as="geometry" />
        </mxCell>
        <mxCell id="EqXGCLOkD7mdPkbikTEO-46" style="edgeStyle=orthogonalEdgeStyle;rounded=0;orthogonalLoop=1;jettySize=auto;html=1;entryX=1;entryY=0.5;entryDx=0;entryDy=0;endArrow=none;startFill=0;" parent="1" source="YjkJPCfu2g2Q44yJsQ8B-8" target="YjkJPCfu2g2Q44yJsQ8B-10" edge="1">
          <mxGeometry relative="1" as="geometry" />
        </mxCell>
        <mxCell id="EqXGCLOkD7mdPkbikTEO-47" style="edgeStyle=orthogonalEdgeStyle;rounded=0;orthogonalLoop=1;jettySize=auto;html=1;entryX=1;entryY=0.5;entryDx=0;entryDy=0;endArrow=none;startFill=0;" parent="1" source="YjkJPCfu2g2Q44yJsQ8B-8" target="YjkJPCfu2g2Q44yJsQ8B-9" edge="1">
          <mxGeometry relative="1" as="geometry" />
        </mxCell>
        <mxCell id="EqXGCLOkD7mdPkbikTEO-48" style="edgeStyle=orthogonalEdgeStyle;rounded=0;orthogonalLoop=1;jettySize=auto;html=1;entryX=1;entryY=0.5;entryDx=0;entryDy=0;endArrow=none;startFill=0;" parent="1" source="YjkJPCfu2g2Q44yJsQ8B-8" target="EqXGCLOkD7mdPkbikTEO-1" edge="1">
          <mxGeometry relative="1" as="geometry" />
        </mxCell>
        <mxCell id="EqXGCLOkD7mdPkbikTEO-49" style="edgeStyle=orthogonalEdgeStyle;rounded=0;orthogonalLoop=1;jettySize=auto;html=1;entryX=1;entryY=0.5;entryDx=0;entryDy=0;endArrow=none;startFill=0;" parent="1" source="YjkJPCfu2g2Q44yJsQ8B-8" target="EqXGCLOkD7mdPkbikTEO-2" edge="1">
          <mxGeometry relative="1" as="geometry" />
        </mxCell>
        <mxCell id="EqXGCLOkD7mdPkbikTEO-50" style="edgeStyle=orthogonalEdgeStyle;rounded=0;orthogonalLoop=1;jettySize=auto;html=1;entryX=1;entryY=0.5;entryDx=0;entryDy=0;endArrow=none;startFill=0;" parent="1" source="YjkJPCfu2g2Q44yJsQ8B-8" target="EqXGCLOkD7mdPkbikTEO-3" edge="1">
          <mxGeometry relative="1" as="geometry" />
        </mxCell>
        <mxCell id="YjkJPCfu2g2Q44yJsQ8B-8" value="CORE SWITCH" style="rounded=0;whiteSpace=wrap;html=1;" parent="1" vertex="1">
          <mxGeometry x="545" y="505" width="150" height="75" as="geometry" />
        </mxCell>
        <mxCell id="EqXGCLOkD7mdPkbikTEO-40" style="edgeStyle=orthogonalEdgeStyle;rounded=0;orthogonalLoop=1;jettySize=auto;html=1;entryX=1;entryY=0.5;entryDx=0;entryDy=0;endArrow=none;startFill=0;" parent="1" source="YjkJPCfu2g2Q44yJsQ8B-9" target="EqXGCLOkD7mdPkbikTEO-23" edge="1">
          <mxGeometry relative="1" as="geometry" />
        </mxCell>
        <mxCell id="EqXGCLOkD7mdPkbikTEO-61" style="edgeStyle=orthogonalEdgeStyle;rounded=0;orthogonalLoop=1;jettySize=auto;html=1;entryX=1;entryY=0.5;entryDx=0;entryDy=0;endArrow=none;startFill=0;" parent="1" source="YjkJPCfu2g2Q44yJsQ8B-9" target="EqXGCLOkD7mdPkbikTEO-54" edge="1">
          <mxGeometry relative="1" as="geometry" />
        </mxCell>
        <mxCell id="YjkJPCfu2g2Q44yJsQ8B-9" value="SWITCH 2&lt;div&gt;(Finance)&lt;/div&gt;" style="rounded=0;whiteSpace=wrap;html=1;" parent="1" vertex="1">
          <mxGeometry x="340" y="418" width="140" height="50" as="geometry" />
        </mxCell>
        <mxCell id="EqXGCLOkD7mdPkbikTEO-45" style="edgeStyle=orthogonalEdgeStyle;rounded=0;orthogonalLoop=1;jettySize=auto;html=1;entryX=1;entryY=0.5;entryDx=0;entryDy=0;endArrow=none;startFill=0;" parent="1" source="YjkJPCfu2g2Q44yJsQ8B-10" target="YjkJPCfu2g2Q44yJsQ8B-11" edge="1">
          <mxGeometry relative="1" as="geometry" />
        </mxCell>
        <mxCell id="EqXGCLOkD7mdPkbikTEO-59" style="edgeStyle=orthogonalEdgeStyle;rounded=0;orthogonalLoop=1;jettySize=auto;html=1;entryX=1;entryY=0.5;entryDx=0;entryDy=0;endArrow=none;startFill=0;" parent="1" source="YjkJPCfu2g2Q44yJsQ8B-10" target="EqXGCLOkD7mdPkbikTEO-53" edge="1">
          <mxGeometry relative="1" as="geometry" />
        </mxCell>
        <mxCell id="YjkJPCfu2g2Q44yJsQ8B-10" value="SWITCH&amp;nbsp;&lt;span style=&quot;background-color: transparent; color: light-dark(rgb(0, 0, 0), rgb(255, 255, 255));&quot;&gt;1&lt;/span&gt;&lt;div&gt;&lt;span style=&quot;background-color: transparent; color: light-dark(rgb(0, 0, 0), rgb(255, 255, 255));&quot;&gt;(Management/&lt;/span&gt;&lt;span style=&quot;background-color: transparent; color: light-dark(rgb(0, 0, 0), rgb(255, 255, 255));&quot;&gt;HR/Admin&lt;/span&gt;&lt;span style=&quot;background-color: transparent; color: light-dark(rgb(0, 0, 0), rgb(255, 255, 255));&quot;&gt;)&lt;/span&gt;&lt;/div&gt;" style="rounded=0;whiteSpace=wrap;html=1;" parent="1" vertex="1">
          <mxGeometry x="340" y="336.38" width="140" height="50" as="geometry" />
        </mxCell>
        <mxCell id="YjkJPCfu2g2Q44yJsQ8B-18" value="DHCP Server" style="rounded=0;whiteSpace=wrap;html=1;" parent="1" vertex="1">
          <mxGeometry x="870" y="368" width="100" height="50" as="geometry" />
        </mxCell>
        <mxCell id="YjkJPCfu2g2Q44yJsQ8B-19" value="Web Server" style="rounded=0;whiteSpace=wrap;html=1;" parent="1" vertex="1">
          <mxGeometry x="870" y="610" width="100" height="50" as="geometry" />
        </mxCell>
        <mxCell id="YjkJPCfu2g2Q44yJsQ8B-20" value="CRM Server" style="rounded=0;whiteSpace=wrap;html=1;" parent="1" vertex="1">
          <mxGeometry x="870" y="443" width="100" height="50" as="geometry" />
        </mxCell>
        <mxCell id="YjkJPCfu2g2Q44yJsQ8B-34" style="edgeStyle=orthogonalEdgeStyle;rounded=0;orthogonalLoop=1;jettySize=auto;html=1;endArrow=none;startFill=0;" parent="1" source="YjkJPCfu2g2Q44yJsQ8B-5" target="YjkJPCfu2g2Q44yJsQ8B-8" edge="1">
          <mxGeometry relative="1" as="geometry" />
        </mxCell>
        <mxCell id="YjkJPCfu2g2Q44yJsQ8B-48" value="&lt;b&gt;&lt;font style=&quot;font-size: 18px;&quot;&gt;Wired Network&lt;/font&gt;&lt;/b&gt;&lt;div&gt;&lt;b&gt;&lt;font style=&quot;font-size: 18px;&quot;&gt;Headquarters - Sydney&lt;/font&gt;&lt;/b&gt;&lt;/div&gt;" style="text;html=1;align=center;verticalAlign=middle;whiteSpace=wrap;rounded=0;strokeColor=default;fillColor=none;" parent="1" vertex="1">
          <mxGeometry x="170" y="20" width="290" height="110" as="geometry" />
        </mxCell>
        <mxCell id="YjkJPCfu2g2Q44yJsQ8B-49" value="&lt;b&gt;Gateway&lt;/b&gt;: 33.0.0.1" style="text;html=1;align=center;verticalAlign=middle;resizable=0;points=[];autosize=1;strokeColor=none;fillColor=none;" parent="1" vertex="1">
          <mxGeometry x="650" y="145" width="120" height="30" as="geometry" />
        </mxCell>
        <mxCell id="YjkJPCfu2g2Q44yJsQ8B-50" value="33.0.0.2" style="text;html=1;align=center;verticalAlign=middle;resizable=0;points=[];autosize=1;strokeColor=none;fillColor=none;" parent="1" vertex="1">
          <mxGeometry x="685" y="300" width="70" height="30" as="geometry" />
        </mxCell>
        <mxCell id="YjkJPCfu2g2Q44yJsQ8B-51" value="33.0.0.3" style="text;html=1;align=center;verticalAlign=middle;resizable=0;points=[];autosize=1;strokeColor=none;fillColor=none;" parent="1" vertex="1">
          <mxGeometry x="635" y="468" width="70" height="30" as="geometry" />
        </mxCell>
        <mxCell id="YjkJPCfu2g2Q44yJsQ8B-52" value="33.0.0.5" style="text;html=1;align=center;verticalAlign=middle;resizable=0;points=[];autosize=1;strokeColor=none;fillColor=none;" parent="1" vertex="1">
          <mxGeometry x="980" y="453" width="70" height="30" as="geometry" />
        </mxCell>
        <mxCell id="YjkJPCfu2g2Q44yJsQ8B-53" value="33.0.0.4" style="text;html=1;align=center;verticalAlign=middle;resizable=0;points=[];autosize=1;strokeColor=none;fillColor=none;" parent="1" vertex="1">
          <mxGeometry x="980" y="372.76" width="70" height="30" as="geometry" />
        </mxCell>
        <mxCell id="YjkJPCfu2g2Q44yJsQ8B-54" value="33.0.0.6" style="text;html=1;align=center;verticalAlign=middle;resizable=0;points=[];autosize=1;strokeColor=none;fillColor=none;" parent="1" vertex="1">
          <mxGeometry x="980" y="527.5" width="70" height="30" as="geometry" />
        </mxCell>
        <mxCell id="YjkJPCfu2g2Q44yJsQ8B-59" value="33.0.0.10" style="text;html=1;align=center;verticalAlign=middle;resizable=0;points=[];autosize=1;strokeColor=none;fillColor=none;" parent="1" vertex="1">
          <mxGeometry x="375" y="306.38" width="70" height="30" as="geometry" />
        </mxCell>
        <mxCell id="YjkJPCfu2g2Q44yJsQ8B-60" value="33.0.0.11" style="text;html=1;align=center;verticalAlign=middle;resizable=0;points=[];autosize=1;strokeColor=none;fillColor=none;" parent="1" vertex="1">
          <mxGeometry x="375" y="395" width="70" height="30" as="geometry" />
        </mxCell>
        <mxCell id="YjkJPCfu2g2Q44yJsQ8B-61" value="&lt;strong&gt;Subnet:&lt;/strong&gt; 33.0.0.0/24" style="text;whiteSpace=wrap;html=1;" parent="1" vertex="1">
          <mxGeometry x="660" y="120" width="150" height="40" as="geometry" />
        </mxCell>
        <mxCell id="YjkJPCfu2g2Q44yJsQ8B-62" value="&lt;div&gt;Name: Trung Hieu HUYNH&lt;/div&gt;&lt;div&gt;ID: 12281833&lt;/div&gt;" style="text;html=1;align=center;verticalAlign=middle;resizable=0;points=[];autosize=1;strokeColor=none;fillColor=none;" parent="1" vertex="1">
          <mxGeometry x="220" y="140" width="170" height="40" as="geometry" />
        </mxCell>
        <mxCell id="dgyicYW2mbPfEkkoXrJB-2" value="CCTV Server" style="rounded=0;whiteSpace=wrap;html=1;" parent="1" vertex="1">
          <mxGeometry x="870" y="700" width="100" height="50" as="geometry" />
        </mxCell>
        <mxCell id="dgyicYW2mbPfEkkoXrJB-3" value="Mail Server" style="rounded=0;whiteSpace=wrap;html=1;" parent="1" vertex="1">
          <mxGeometry x="870" y="517.5" width="100" height="50" as="geometry" />
        </mxCell>
        <mxCell id="dgyicYW2mbPfEkkoXrJB-4" value="33.0.0.7" style="text;html=1;align=center;verticalAlign=middle;resizable=0;points=[];autosize=1;strokeColor=none;fillColor=none;" parent="1" vertex="1">
          <mxGeometry x="980" y="620" width="70" height="30" as="geometry" />
        </mxCell>
        <mxCell id="dgyicYW2mbPfEkkoXrJB-5" value="33.0.0.8" style="text;html=1;align=center;verticalAlign=middle;resizable=0;points=[];autosize=1;strokeColor=none;fillColor=none;" parent="1" vertex="1">
          <mxGeometry x="980" y="710" width="70" height="30" as="geometry" />
        </mxCell>
        <mxCell id="EqXGCLOkD7mdPkbikTEO-41" style="edgeStyle=orthogonalEdgeStyle;rounded=0;orthogonalLoop=1;jettySize=auto;html=1;endArrow=none;startFill=0;" parent="1" source="EqXGCLOkD7mdPkbikTEO-1" target="EqXGCLOkD7mdPkbikTEO-28" edge="1">
          <mxGeometry relative="1" as="geometry" />
        </mxCell>
        <mxCell id="EqXGCLOkD7mdPkbikTEO-62" style="edgeStyle=orthogonalEdgeStyle;rounded=0;orthogonalLoop=1;jettySize=auto;html=1;endArrow=none;startFill=0;" parent="1" source="EqXGCLOkD7mdPkbikTEO-1" target="EqXGCLOkD7mdPkbikTEO-55" edge="1">
          <mxGeometry relative="1" as="geometry" />
        </mxCell>
        <mxCell id="EqXGCLOkD7mdPkbikTEO-1" value="SWITCH 3&lt;div&gt;(Marketing)&lt;/div&gt;" style="rounded=0;whiteSpace=wrap;html=1;" parent="1" vertex="1">
          <mxGeometry x="340" y="507.5" width="140" height="50" as="geometry" />
        </mxCell>
        <mxCell id="EqXGCLOkD7mdPkbikTEO-42" style="edgeStyle=orthogonalEdgeStyle;rounded=0;orthogonalLoop=1;jettySize=auto;html=1;endArrow=none;startFill=0;" parent="1" source="EqXGCLOkD7mdPkbikTEO-2" target="EqXGCLOkD7mdPkbikTEO-33" edge="1">
          <mxGeometry relative="1" as="geometry" />
        </mxCell>
        <mxCell id="EqXGCLOkD7mdPkbikTEO-65" style="edgeStyle=orthogonalEdgeStyle;rounded=0;orthogonalLoop=1;jettySize=auto;html=1;entryX=1;entryY=0.5;entryDx=0;entryDy=0;endArrow=none;startFill=0;" parent="1" source="EqXGCLOkD7mdPkbikTEO-2" target="EqXGCLOkD7mdPkbikTEO-56" edge="1">
          <mxGeometry relative="1" as="geometry" />
        </mxCell>
        <mxCell id="EqXGCLOkD7mdPkbikTEO-2" value="SWITCH 4&lt;div&gt;(Customer Support)&lt;/div&gt;" style="rounded=0;whiteSpace=wrap;html=1;" parent="1" vertex="1">
          <mxGeometry x="340" y="610" width="140" height="50" as="geometry" />
        </mxCell>
        <mxCell id="EqXGCLOkD7mdPkbikTEO-43" style="edgeStyle=orthogonalEdgeStyle;rounded=0;orthogonalLoop=1;jettySize=auto;html=1;entryX=1;entryY=0.5;entryDx=0;entryDy=0;endArrow=none;startFill=0;" parent="1" source="EqXGCLOkD7mdPkbikTEO-3" target="EqXGCLOkD7mdPkbikTEO-38" edge="1">
          <mxGeometry relative="1" as="geometry" />
        </mxCell>
        <mxCell id="EqXGCLOkD7mdPkbikTEO-64" style="edgeStyle=orthogonalEdgeStyle;rounded=0;orthogonalLoop=1;jettySize=auto;html=1;entryX=1;entryY=0.5;entryDx=0;entryDy=0;endArrow=none;startFill=0;" parent="1" source="EqXGCLOkD7mdPkbikTEO-3" target="EqXGCLOkD7mdPkbikTEO-57" edge="1">
          <mxGeometry relative="1" as="geometry" />
        </mxCell>
        <mxCell id="EqXGCLOkD7mdPkbikTEO-3" value="SWITCH 5&lt;div&gt;(IT Dept)&lt;/div&gt;" style="rounded=0;whiteSpace=wrap;html=1;" parent="1" vertex="1">
          <mxGeometry x="340" y="700" width="140" height="50" as="geometry" />
        </mxCell>
        <mxCell id="EqXGCLOkD7mdPkbikTEO-4" value="33.0.0.12" style="text;html=1;align=center;verticalAlign=middle;resizable=0;points=[];autosize=1;strokeColor=none;fillColor=none;" parent="1" vertex="1">
          <mxGeometry x="375" y="483" width="70" height="30" as="geometry" />
        </mxCell>
        <mxCell id="EqXGCLOkD7mdPkbikTEO-5" value="33.0.0.13" style="text;html=1;align=center;verticalAlign=middle;resizable=0;points=[];autosize=1;strokeColor=none;fillColor=none;" parent="1" vertex="1">
          <mxGeometry x="375" y="590" width="70" height="30" as="geometry" />
        </mxCell>
        <mxCell id="EqXGCLOkD7mdPkbikTEO-6" value="33.0.0.14" style="text;html=1;align=center;verticalAlign=middle;resizable=0;points=[];autosize=1;strokeColor=none;fillColor=none;" parent="1" vertex="1">
          <mxGeometry x="375" y="672.5" width="70" height="30" as="geometry" />
        </mxCell>
        <mxCell id="EqXGCLOkD7mdPkbikTEO-7" style="edgeStyle=orthogonalEdgeStyle;rounded=0;orthogonalLoop=1;jettySize=auto;html=1;exitX=0.5;exitY=1;exitDx=0;exitDy=0;" parent="1" source="YjkJPCfu2g2Q44yJsQ8B-9" target="YjkJPCfu2g2Q44yJsQ8B-9" edge="1">
          <mxGeometry relative="1" as="geometry" />
        </mxCell>
        <mxCell id="EqXGCLOkD7mdPkbikTEO-8" value="" style="group" parent="1" vertex="1" connectable="0">
          <mxGeometry x="110" y="229.76" width="140" height="113" as="geometry" />
        </mxCell>
        <mxCell id="YjkJPCfu2g2Q44yJsQ8B-23" value="" style="fontColor=#0066CC;verticalAlign=top;verticalLabelPosition=bottom;labelPosition=center;align=center;html=1;outlineConnect=0;fillColor=#CCCCCC;strokeColor=#6881B3;gradientColor=none;gradientDirection=north;strokeWidth=2;shape=mxgraph.networks.pc;" parent="EqXGCLOkD7mdPkbikTEO-8" vertex="1">
          <mxGeometry x="23.571428571428555" y="8.065359477124161" width="62.857142857142854" height="36.9281045751634" as="geometry" />
        </mxCell>
        <mxCell id="YjkJPCfu2g2Q44yJsQ8B-11" value="x13 PCs" style="whiteSpace=wrap;html=1;aspect=fixed;" parent="EqXGCLOkD7mdPkbikTEO-8" vertex="1">
          <mxGeometry x="86.42857142857142" y="0.003464052287563746" width="47.900326797385624" height="47.900326797385624" as="geometry" />
        </mxCell>
        <mxCell id="EqXGCLOkD7mdPkbikTEO-53" value="AP1" style="rounded=0;whiteSpace=wrap;html=1;" parent="EqXGCLOkD7mdPkbikTEO-8" vertex="1">
          <mxGeometry x="24.33" y="70.24" width="110" height="29" as="geometry" />
        </mxCell>
        <mxCell id="EqXGCLOkD7mdPkbikTEO-19" value="" style="group" parent="1" vertex="1" connectable="0">
          <mxGeometry x="110" y="372.76" width="140" height="137.24" as="geometry" />
        </mxCell>
        <mxCell id="EqXGCLOkD7mdPkbikTEO-20" value="" style="group" parent="EqXGCLOkD7mdPkbikTEO-19" vertex="1" connectable="0">
          <mxGeometry x="40.00142857142857" y="-12.764640522875817" width="101.42857142857144" height="92.17464052287585" as="geometry" />
        </mxCell>
        <mxCell id="EqXGCLOkD7mdPkbikTEO-21" value="" style="fontColor=#0066CC;verticalAlign=top;verticalLabelPosition=bottom;labelPosition=center;align=center;html=1;outlineConnect=0;fillColor=#CCCCCC;strokeColor=#6881B3;gradientColor=none;gradientDirection=north;strokeWidth=2;shape=mxgraph.networks.pc;" parent="EqXGCLOkD7mdPkbikTEO-20" vertex="1">
          <mxGeometry width="62.857142857142854" height="36.9281045751634" as="geometry" />
        </mxCell>
        <mxCell id="EqXGCLOkD7mdPkbikTEO-54" value="AP2" style="rounded=0;whiteSpace=wrap;html=1;" parent="EqXGCLOkD7mdPkbikTEO-20" vertex="1">
          <mxGeometry x="-8.571428571428555" y="65.00464052287585" width="110" height="29" as="geometry" />
        </mxCell>
        <mxCell id="EqXGCLOkD7mdPkbikTEO-23" value="x10 PCs" style="whiteSpace=wrap;html=1;aspect=fixed;" parent="EqXGCLOkD7mdPkbikTEO-19" vertex="1">
          <mxGeometry x="92.09857142857142" y="-12.756535947712436" width="47.900326797385624" height="47.900326797385624" as="geometry" />
        </mxCell>
        <mxCell id="EqXGCLOkD7mdPkbikTEO-67" value="33.0.0.34" style="text;html=1;align=center;verticalAlign=middle;resizable=0;points=[];autosize=1;strokeColor=none;fillColor=none;" parent="EqXGCLOkD7mdPkbikTEO-19" vertex="1">
          <mxGeometry x="-30" y="45.120000000000005" width="70" height="30" as="geometry" />
        </mxCell>
        <mxCell id="EqXGCLOkD7mdPkbikTEO-24" value="" style="group" parent="1" vertex="1" connectable="0">
          <mxGeometry x="120" y="468" width="140" height="113.00000000000003" as="geometry" />
        </mxCell>
        <mxCell id="EqXGCLOkD7mdPkbikTEO-25" value="" style="group" parent="EqXGCLOkD7mdPkbikTEO-24" vertex="1" connectable="0">
          <mxGeometry x="23.57142857142857" y="28.065359477124183" width="110.75746965452848" height="84.93464052287584" as="geometry" />
        </mxCell>
        <mxCell id="EqXGCLOkD7mdPkbikTEO-26" value="" style="fontColor=#0066CC;verticalAlign=top;verticalLabelPosition=bottom;labelPosition=center;align=center;html=1;outlineConnect=0;fillColor=#CCCCCC;strokeColor=#6881B3;gradientColor=none;gradientDirection=north;strokeWidth=2;shape=mxgraph.networks.pc;" parent="EqXGCLOkD7mdPkbikTEO-25" vertex="1">
          <mxGeometry width="62.857142857142854" height="36.9281045751634" as="geometry" />
        </mxCell>
        <mxCell id="EqXGCLOkD7mdPkbikTEO-55" value="AP3" style="rounded=0;whiteSpace=wrap;html=1;" parent="EqXGCLOkD7mdPkbikTEO-25" vertex="1">
          <mxGeometry x="-8.571428571428555" y="55.93464052287584" width="110" height="29" as="geometry" />
        </mxCell>
        <mxCell id="EqXGCLOkD7mdPkbikTEO-28" value="x15 PCs" style="whiteSpace=wrap;html=1;aspect=fixed;" parent="EqXGCLOkD7mdPkbikTEO-25" vertex="1">
          <mxGeometry x="62.85714285714286" y="-10.971895424836596" width="47.900326797385624" height="47.900326797385624" as="geometry" />
        </mxCell>
        <mxCell id="EqXGCLOkD7mdPkbikTEO-29" value="" style="group" parent="1" vertex="1" connectable="0">
          <mxGeometry x="110" y="618" width="140" height="113" as="geometry" />
        </mxCell>
        <mxCell id="EqXGCLOkD7mdPkbikTEO-30" value="" style="group" parent="EqXGCLOkD7mdPkbikTEO-29" vertex="1" connectable="0">
          <mxGeometry x="23.57142857142857" y="28.065359477124183" width="110.75746965452848" height="84.93464052287582" as="geometry" />
        </mxCell>
        <mxCell id="EqXGCLOkD7mdPkbikTEO-31" value="" style="fontColor=#0066CC;verticalAlign=top;verticalLabelPosition=bottom;labelPosition=center;align=center;html=1;outlineConnect=0;fillColor=#CCCCCC;strokeColor=#6881B3;gradientColor=none;gradientDirection=north;strokeWidth=2;shape=mxgraph.networks.pc;" parent="EqXGCLOkD7mdPkbikTEO-30" vertex="1">
          <mxGeometry x="10" y="-31.53" width="62.857142857142854" height="36.9281045751634" as="geometry" />
        </mxCell>
        <mxCell id="EqXGCLOkD7mdPkbikTEO-56" value="AP4" style="rounded=0;whiteSpace=wrap;html=1;" parent="EqXGCLOkD7mdPkbikTEO-30" vertex="1">
          <mxGeometry x="5.718571428571437" y="16.364640522875874" width="110" height="29" as="geometry" />
        </mxCell>
        <mxCell id="EqXGCLOkD7mdPkbikTEO-33" value="x12 PCs" style="whiteSpace=wrap;html=1;aspect=fixed;" parent="EqXGCLOkD7mdPkbikTEO-30" vertex="1">
          <mxGeometry x="72.85714285714286" y="-42.5018954248366" width="47.900326797385624" height="47.900326797385624" as="geometry" />
        </mxCell>
        <mxCell id="EqXGCLOkD7mdPkbikTEO-69" value="33.0.0.36" style="text;html=1;align=center;verticalAlign=middle;resizable=0;points=[];autosize=1;strokeColor=none;fillColor=none;" parent="EqXGCLOkD7mdPkbikTEO-29" vertex="1">
          <mxGeometry x="-36.43000000000001" y="41.5" width="70" height="30" as="geometry" />
        </mxCell>
        <mxCell id="EqXGCLOkD7mdPkbikTEO-34" value="" style="group" parent="1" vertex="1" connectable="0">
          <mxGeometry x="120" y="710" width="140" height="113" as="geometry" />
        </mxCell>
        <mxCell id="EqXGCLOkD7mdPkbikTEO-35" value="" style="group" parent="EqXGCLOkD7mdPkbikTEO-34" vertex="1" connectable="0">
          <mxGeometry x="23.57142857142857" y="28.065359477124183" width="101.42857142857144" height="84.93464052287582" as="geometry" />
        </mxCell>
        <mxCell id="EqXGCLOkD7mdPkbikTEO-36" value="" style="fontColor=#0066CC;verticalAlign=top;verticalLabelPosition=bottom;labelPosition=center;align=center;html=1;outlineConnect=0;fillColor=#CCCCCC;strokeColor=#6881B3;gradientColor=none;gradientDirection=north;strokeWidth=2;shape=mxgraph.networks.pc;" parent="EqXGCLOkD7mdPkbikTEO-35" vertex="1">
          <mxGeometry width="62.857142857142854" height="36.9281045751634" as="geometry" />
        </mxCell>
        <mxCell id="EqXGCLOkD7mdPkbikTEO-57" value="AP5" style="rounded=0;whiteSpace=wrap;html=1;" parent="EqXGCLOkD7mdPkbikTEO-35" vertex="1">
          <mxGeometry x="-8.571428571428555" y="44.934640522875846" width="110" height="29" as="geometry" />
        </mxCell>
        <mxCell id="EqXGCLOkD7mdPkbikTEO-38" value="x10 PCs" style="whiteSpace=wrap;html=1;aspect=fixed;" parent="EqXGCLOkD7mdPkbikTEO-34" vertex="1">
          <mxGeometry x="86.42857142857142" y="13.003464052287564" width="47.900326797385624" height="47.900326797385624" as="geometry" />
        </mxCell>
        <mxCell id="YjkJPCfu2g2Q44yJsQ8B-63" value="33.0.0.20 to 33.0.0.32" style="text;html=1;align=center;verticalAlign=middle;resizable=0;points=[];autosize=1;strokeColor=none;fillColor=none;" parent="1" vertex="1">
          <mxGeometry x="20" y="210" width="140" height="30" as="geometry" />
        </mxCell>
        <mxCell id="EqXGCLOkD7mdPkbikTEO-32" value="33.0.0.70 to 33.0.0.82" style="text;html=1;align=center;verticalAlign=middle;resizable=0;points=[];autosize=1;strokeColor=none;fillColor=none;" parent="1" vertex="1">
          <mxGeometry x="10" y="600" width="140" height="30" as="geometry" />
        </mxCell>
        <mxCell id="EqXGCLOkD7mdPkbikTEO-37" value="33.0.0.90 to 33.0.0.99" style="text;html=1;align=center;verticalAlign=middle;resizable=0;points=[];autosize=1;strokeColor=none;fillColor=none;" parent="1" vertex="1">
          <mxGeometry x="20" y="720" width="140" height="30" as="geometry" />
        </mxCell>
        <mxCell id="EqXGCLOkD7mdPkbikTEO-68" value="33.0.0.35" style="text;html=1;align=center;verticalAlign=middle;resizable=0;points=[];autosize=1;strokeColor=none;fillColor=none;" parent="1" vertex="1">
          <mxGeometry x="70" y="537.5" width="70" height="30" as="geometry" />
        </mxCell>
        <mxCell id="EqXGCLOkD7mdPkbikTEO-70" value="33.0.0.37" style="text;html=1;align=center;verticalAlign=middle;resizable=0;points=[];autosize=1;strokeColor=none;fillColor=none;" parent="1" vertex="1">
          <mxGeometry x="65" y="770" width="70" height="30" as="geometry" />
        </mxCell>
        <mxCell id="EqXGCLOkD7mdPkbikTEO-22" value="33.0.0.40 to 33.0.0.49" style="text;html=1;align=center;verticalAlign=middle;resizable=0;points=[];autosize=1;strokeColor=none;fillColor=none;" parent="1" vertex="1">
          <mxGeometry x="20" y="342.76" width="140" height="30" as="geometry" />
        </mxCell>
        <mxCell id="EqXGCLOkD7mdPkbikTEO-27" value="33.0.0.50 to 33.0.0.64" style="text;html=1;align=center;verticalAlign=middle;resizable=0;points=[];autosize=1;strokeColor=none;fillColor=none;" parent="1" vertex="1">
          <mxGeometry x="10" y="480" width="140" height="30" as="geometry" />
        </mxCell>
        <mxCell id="EqXGCLOkD7mdPkbikTEO-66" value="33.0.0.33" style="text;html=1;align=center;verticalAlign=middle;resizable=0;points=[];autosize=1;strokeColor=none;fillColor=none;" parent="1" vertex="1">
          <mxGeometry x="63.57" y="299" width="70" height="30" as="geometry" />
        </mxCell>
      </root>
    </mxGraphModel>
  </diagram>
</mxfile>
